<svg width="240" height="240" viewBox="0 0 240 240" fill="none" xmlns="http://www.w3.org/2000/svg">
<rect x="1" y="1" width="238" height="238" rx="4" stroke="#777E89" stroke-width="2" stroke-dasharray="8 8"/>
<mask id="mask0_13_1592" style="mask-type:alpha" maskUnits="userSpaceOnUse" x="88" y="88" width="64" height="64">
<rect x="88" y="88" width="64" height="64" fill="#D9D9D9"/>
</mask>
<g mask="url(#mask0_13_1592)">
<path d="M101.333 144C99.8667 144 98.6111 143.478 97.5667 142.433C96.5222 141.389 96 140.133 96 138.667V101.333C96 99.8667 96.5222 98.6111 97.5667 97.5667C98.6111 96.5222 99.8667 96 101.333 96H125.333V101.333H101.333V138.667H138.667V114.667H144V138.667C144 140.133 143.478 141.389 142.433 142.433C141.389 143.478 140.133 144 138.667 144H101.333ZM133.333 112V106.667H128V101.333H133.333V96H138.667V101.333H144V106.667H138.667V112H133.333ZM104 133.333H136L126 120L118 130.667L112 122.667L104 133.333Z" fill="#777E89"/>
</g>
</svg>
