<svg width="214" height="160" viewBox="0 0 214 160" fill="none" xmlns="http://www.w3.org/2000/svg">
<path d="M214 140.606H0V140.713H214V140.606Z" fill="#EBEBEB"/>
<path d="M36.6285 144.694H22.4531V144.801H36.6285V144.694Z" fill="#EBEBEB"/>
<path d="M91.4509 143.53H73.248V143.638H91.4509V143.53Z" fill="#EBEBEB"/>
<path d="M48.2187 146.201H40.0054V146.309H48.2187V146.201Z" fill="#EBEBEB"/>
<path d="M192.557 147.962H186.039V148.07H192.557V147.962Z" fill="#EBEBEB"/>
<path d="M182.225 147.962H167.549V148.07H182.225V147.962Z" fill="#EBEBEB"/>
<path d="M142.023 144.87H131.824V144.977H142.023V144.87Z" fill="#EBEBEB"/>
<path d="M101.436 121.452H18.7979C18.1497 121.452 17.5281 121.193 17.0698 120.733C16.6115 120.273 16.354 119.65 16.354 118.999V2.43075C16.3596 1.78411 16.6196 1.16588 17.0773 0.710631C17.535 0.255384 18.1534 -2.4791e-05 18.7979 1.80483e-09H101.436C102.084 1.80484e-09 102.706 0.258359 103.164 0.718239C103.623 1.17812 103.88 1.80185 103.88 2.45222V118.999C103.88 119.65 103.623 120.273 103.164 120.733C102.706 121.193 102.084 121.452 101.436 121.452ZM18.7979 0.0858925C18.1785 0.0870278 17.5847 0.334439 17.1467 0.773939C16.7087 1.21344 16.4621 1.8092 16.461 2.43075V118.999C16.4621 119.621 16.7087 120.217 17.1467 120.656C17.5847 121.096 18.1785 121.343 18.7979 121.344H101.436C102.056 121.343 102.649 121.096 103.087 120.656C103.525 120.217 103.772 119.621 103.773 118.999V2.43075C103.772 1.8092 103.525 1.21344 103.087 0.773939C102.649 0.334439 102.056 0.0870278 101.436 0.0858925H18.7979Z" fill="#EBEBEB"/>
<path d="M194.016 121.452H111.37C110.722 121.45 110.101 121.192 109.643 120.732C109.185 120.272 108.927 119.649 108.926 118.999V2.43075C108.933 1.78446 109.193 1.16688 109.65 0.711872C110.108 0.256864 110.726 0.00109439 111.37 0H194.016C194.659 0.00223513 195.276 0.258643 195.732 0.713647C196.187 1.16865 196.446 1.78559 196.452 2.43075V118.999C196.452 119.648 196.195 120.271 195.739 120.73C195.283 121.19 194.663 121.449 194.016 121.452ZM111.37 0.0858925C110.75 0.0870278 110.156 0.334439 109.718 0.773939C109.28 1.21344 109.034 1.8092 109.033 2.43075V118.999C109.034 119.621 109.28 120.217 109.718 120.656C110.156 121.096 110.75 121.343 111.37 121.344H194.016C194.636 121.343 195.23 121.096 195.668 120.656C196.106 120.217 196.352 119.621 196.353 118.999V2.43075C196.352 1.8092 196.106 1.21344 195.668 0.773939C195.23 0.334439 194.636 0.0870278 194.016 0.0858925H111.37Z" fill="#EBEBEB"/>
<path d="M131.61 60.7129L177.778 60.7129V14.2624L131.61 14.2624V60.7129Z" fill="#F0F0F0"/>
<path d="M131.61 14.2667H130.813V60.7172H131.61V14.2667Z" fill="#E0E0E0"/>
<path d="M135.689 57.7797L173.704 57.7797V17.1957L135.689 17.1957V57.7797Z" fill="#FAFAFA"/>
<path d="M150.656 48.9586H162.695C165.306 48.9586 167.052 46.837 166.594 44.2345L164.253 30.7795C163.993 29.4776 163.302 28.3023 162.292 27.4446C161.281 26.587 160.012 26.0974 158.689 26.0554H146.68C144.069 26.0554 142.322 28.177 142.78 30.7795L145.122 44.2345C145.38 45.5319 146.067 46.7039 147.071 47.5612C148.075 48.4184 149.338 48.9107 150.656 48.9586Z" fill="#F0F0F0"/>
<path d="M44.9273 74.8207H34.6553V138.402H44.9273V74.8207Z" fill="#F0F0F0"/>
<path d="M89.9997 138.407H35.7036V140.601H89.9997V138.407Z" fill="#F0F0F0"/>
<path d="M44.9271 138.407H90.9028L90.9028 74.825H44.9271L44.9271 138.407Z" fill="#F5F5F5"/>
<path d="M46.7759 119.283H89.0537V107.928H46.7759V119.283Z" fill="#F0F0F0"/>
<path d="M46.7759 134.142H89.0537V122.787H46.7759V134.142Z" fill="#F0F0F0"/>
<path d="M84.0507 107.232H51.7795C51.5005 107.232 51.2744 107.459 51.2744 107.739V108.284C51.2744 108.564 51.5005 108.791 51.7795 108.791H84.0507C84.3296 108.791 84.5557 108.564 84.5557 108.284V107.739C84.5557 107.459 84.3296 107.232 84.0507 107.232Z" fill="#F5F5F5"/>
<path d="M84.0507 122.096H51.7795C51.5005 122.096 51.2744 122.323 51.2744 122.603V123.148C51.2744 123.428 51.5005 123.655 51.7795 123.655H84.0507C84.3296 123.655 84.5557 123.428 84.5557 123.148V122.603C84.5557 122.323 84.3296 122.096 84.0507 122.096Z" fill="#F5F5F5"/>
<path d="M46.7759 89.6801H89.0537V78.3251H46.7759V89.6801Z" fill="#F0F0F0"/>
<path d="M46.7759 104.428H89.0537V93.0728H46.7759V104.428Z" fill="#F0F0F0"/>
<path d="M84.0507 77.6337H51.7795C51.5005 77.6337 51.2744 77.8605 51.2744 78.1404V78.6858C51.2744 78.9657 51.5005 79.1926 51.7795 79.1926H84.0507C84.3296 79.1926 84.5557 78.9657 84.5557 78.6858V78.1404C84.5557 77.8605 84.3296 77.6337 84.0507 77.6337Z" fill="#F5F5F5"/>
<path d="M84.0507 92.3728H51.7795C51.5005 92.3728 51.2744 92.5997 51.2744 92.8796V93.425C51.2744 93.7049 51.5005 93.9317 51.7795 93.9317H84.0507C84.3296 93.9317 84.5557 93.7049 84.5557 93.425V92.8796C84.5557 92.5997 84.3296 92.3728 84.0507 92.3728Z" fill="#F5F5F5"/>
<path d="M89.2379 10.7623H31.582V61.5503H89.2379V10.7623Z" fill="#E6E6E6"/>
<path d="M95.4184 8.7868H27.85C27.7749 8.7868 27.7005 8.80172 27.6312 8.83069C27.5618 8.85966 27.4989 8.90212 27.446 8.95561C27.3931 9.00911 27.3512 9.07258 27.3229 9.14238C27.2945 9.21218 27.2802 9.28691 27.2808 9.36228C27.2808 9.51377 27.3408 9.65905 27.4475 9.76617C27.5543 9.87329 27.699 9.93346 27.85 9.93346H95.4184C95.5697 9.93347 95.715 9.87343 95.8224 9.76643C95.9298 9.65944 95.9908 9.51416 95.9919 9.36228C95.9919 9.20966 95.9315 9.06328 95.8239 8.95536C95.7164 8.84744 95.5705 8.7868 95.4184 8.7868Z" fill="#E6E6E6"/>
<path d="M91.6859 10.7623H32.7246V61.5503H91.6859V10.7623Z" fill="#F0F0F0"/>
<path d="M89.2379 61.5504H31.582V63.178H90.9242L89.2379 61.5504Z" fill="#E6E6E6"/>
<path d="M95.7612 61.5504H36.8042L38.4862 63.178H97.4475L95.7612 61.5504Z" fill="#F0F0F0"/>
<path d="M88.2622 58.1147V14.198L36.1532 14.198V58.1147H88.2622Z" fill="#FAFAFA"/>
<path d="M47.9834 58.1147L68.0823 14.198H77.5753L57.4722 58.1147H47.9834Z" fill="white"/>
<path d="M59.5088 58.1147L79.6119 14.198H83.3099L63.211 58.1147H59.5088Z" fill="white"/>
<path d="M88.2622 58.1147V14.198H87.8256V58.1147H88.2622Z" fill="#E6E6E6"/>
<g opacity="0.4">
<path d="M36.1919 7.76031H30.2983V49.6714H36.1919V7.76031Z" fill="#F0F0F0"/>
<path d="M38.4904 7.76031H33.8979V49.6714H38.4904V7.76031Z" fill="#E6E6E6"/>
<path d="M42.0855 7.76031H36.1919V49.6714H42.0855V7.76031Z" fill="#F0F0F0"/>
<path d="M44.3839 7.76031H39.7915V49.6714H44.3839V7.76031Z" fill="#E6E6E6"/>
<path d="M47.979 7.76031H42.0854V49.6714H47.979V7.76031Z" fill="#F0F0F0"/>
</g>
<g opacity="0.4">
<path d="M86.0707 7.76031H82.6724V49.6714H86.0707V7.76031Z" fill="#F0F0F0"/>
<path d="M87.3892 7.76031H84.7441V49.6714H87.3892V7.76031Z" fill="#E6E6E6"/>
<path d="M89.4647 7.76031H86.0664V49.6714H89.4647V7.76031Z" fill="#F0F0F0"/>
<path d="M90.7871 7.76031H88.1421V49.6714H90.7871V7.76031Z" fill="#E6E6E6"/>
<path d="M92.8632 7.76031H89.4648V49.6714H92.8632V7.76031Z" fill="#F0F0F0"/>
</g>
<path d="M152.732 91.9949C152.682 92.6161 152.816 93.2384 153.118 93.783C153.42 94.3277 153.876 94.7703 154.429 95.0549C154.981 95.3395 155.606 95.4533 156.223 95.3819C156.84 95.3106 157.422 95.0573 157.896 94.654C158.369 94.2508 158.713 93.7157 158.884 93.1164C159.054 92.5171 159.044 91.8805 158.854 91.287C158.665 90.6935 158.304 90.1699 157.817 89.7822C157.331 89.3945 156.741 89.1602 156.122 89.1089C155.291 89.0412 154.467 89.3071 153.832 89.8482C153.196 90.3893 152.801 91.1613 152.732 91.9949Z" fill="#E0E0E0"/>
<path d="M161.466 97.0151C163.185 96.7614 164.373 95.1575 164.12 93.4327C163.868 91.708 162.269 90.5155 160.55 90.7693C158.831 91.023 157.643 92.6269 157.896 94.3517C158.149 96.0764 159.747 97.2689 161.466 97.0151Z" fill="#E0E0E0"/>
<path d="M163.377 94.2882C163.326 94.9094 163.461 95.5317 163.763 96.0764C164.065 96.621 164.521 97.0636 165.073 97.3482C165.626 97.6328 166.25 97.7466 166.867 97.6753C167.484 97.6039 168.067 97.3506 168.54 96.9474C169.014 96.5441 169.358 96.009 169.528 95.4097C169.699 94.8104 169.689 94.1738 169.499 93.5803C169.309 92.9869 168.948 92.4632 168.462 92.0755C167.975 91.6878 167.385 91.4535 166.766 91.4022C166.355 91.3675 165.94 91.4148 165.547 91.5412C165.154 91.6676 164.789 91.8707 164.474 92.1388C164.159 92.4069 163.9 92.7348 163.712 93.1037C163.523 93.4725 163.409 93.8751 163.377 94.2882Z" fill="#E0E0E0"/>
<path d="M146.89 93.6482C146.839 94.2695 146.974 94.8917 147.276 95.4364C147.578 95.9811 148.034 96.4237 148.586 96.7083C149.139 96.9929 149.763 97.1067 150.381 97.0353C150.998 96.964 151.58 96.7107 152.053 96.3074C152.527 95.9042 152.871 95.3691 153.042 94.7698C153.212 94.1705 153.202 93.5338 153.012 92.9404C152.822 92.3469 152.461 91.8232 151.975 91.4356C151.489 91.0479 150.899 90.8136 150.279 90.7623C149.449 90.6946 148.625 90.9604 147.99 91.5015C147.354 92.0427 146.958 92.8147 146.89 93.6482Z" fill="#E0E0E0"/>
<path d="M171.508 97.013C173.226 96.7592 174.415 95.1553 174.162 93.4306C173.909 91.7058 172.311 90.5134 170.592 90.7671C168.873 91.0209 167.685 92.6248 167.937 94.3495C168.19 96.0743 169.789 97.2667 171.508 97.013Z" fill="#E0E0E0"/>
<path d="M147.829 93.6363C149.149 92.5032 149.304 90.5105 148.175 89.1856C147.046 87.8607 145.06 87.7052 143.739 88.8384C142.419 89.9715 142.264 91.9642 143.393 93.2891C144.523 94.614 146.509 94.7695 147.829 93.6363Z" fill="#E0E0E0"/>
<path d="M138.21 92.9311C138.159 93.5524 138.294 94.1746 138.596 94.7193C138.898 95.264 139.354 95.7066 139.906 95.9912C140.459 96.2757 141.083 96.3896 141.7 96.3182C142.317 96.2469 142.9 95.9936 143.373 95.5903C143.847 95.1871 144.191 94.652 144.361 94.0527C144.532 93.4533 144.522 92.8167 144.332 92.2233C144.142 91.6298 143.781 91.1061 143.295 90.7184C142.808 90.3308 142.218 90.0965 141.599 90.0452C140.769 89.9775 139.945 90.2433 139.309 90.7844C138.674 91.3256 138.278 92.0976 138.21 92.9311Z" fill="#E0E0E0"/>
<path d="M134.619 93.7814C134.619 93.7814 135.158 106.695 155.839 106.695C176.52 106.695 177.06 93.7814 177.06 93.7814H134.619Z" fill="#F0F0F0"/>
<path d="M188.859 106.695H184.926V140.601H188.859V106.695Z" fill="#E6E6E6"/>
<path d="M189.908 106.695H187.593V140.601H189.908V106.695Z" fill="#F0F0F0"/>
<path d="M172.124 106.695H168.191V140.601H172.124V106.695Z" fill="#E6E6E6"/>
<path d="M172.861 106.695H170.545V140.601H172.861V106.695Z" fill="#F0F0F0"/>
<path d="M134.79 110.81H190.626V106.7H134.79V110.81Z" fill="#F0F0F0"/>
<path d="M117.725 106.695H113.792V140.601H117.725V106.695Z" fill="#E6E6E6"/>
<path d="M118.462 106.695H116.146V140.601H118.462V106.695Z" fill="#F0F0F0"/>
<path d="M113.09 110.81H133.107V106.7H113.09V110.81Z" fill="#E6E6E6"/>
<path d="M134.457 106.695H130.523V140.601H134.457V106.695Z" fill="#E6E6E6"/>
<path d="M135.509 106.695H133.194V140.601H135.509V106.695Z" fill="#F0F0F0"/>
<path d="M107 160C152.831 160 189.985 157.823 189.985 155.139C189.985 152.454 152.831 150.277 107 150.277C61.1688 150.277 24.0151 152.454 24.0151 155.139C24.0151 157.823 61.1688 160 107 160Z" fill="#F5F5F5"/>
<path d="M152.146 150.874C152.146 151.732 151.843 152.563 151.291 153.218C150.738 153.873 149.972 154.31 149.128 154.451C138.744 156.209 128.14 156.209 117.756 154.451C116.916 154.306 116.154 153.867 115.606 153.213C115.057 152.558 114.758 151.729 114.76 150.874V116.088H152.163L152.146 150.874Z" fill="#FC4B6C"/>
<path opacity="0.3" d="M114.739 116.715V121.598C116.99 122.435 124.382 123.049 133.442 123.049C142.503 123.049 149.908 122.435 152.146 121.598V116.715H114.739Z" fill="black"/>
<path d="M152.847 120.438C152.847 121.542 144.356 122.435 133.442 122.435C122.528 122.435 114.036 121.542 114.036 120.438L113.681 116.1H153.224L152.847 120.438Z" fill="#FC4B6C"/>
<path d="M133.442 118.093C144.355 118.093 153.203 117.201 153.203 116.1C153.203 115 144.355 114.108 133.442 114.108C122.528 114.108 113.681 115 113.681 116.1C113.681 117.201 122.528 118.093 133.442 118.093Z" fill="#FC4B6C"/>
<path opacity="0.3" d="M133.442 118.093C144.355 118.093 153.203 117.201 153.203 116.1C153.203 115 144.355 114.108 133.442 114.108C122.528 114.108 113.681 115 113.681 116.1C113.681 117.201 122.528 118.093 133.442 118.093Z" fill="black"/>
<path opacity="0.2" d="M119.755 148.426C119.37 148.425 119.002 148.271 118.73 147.998C118.458 147.726 118.305 147.356 118.304 146.97V127.026C118.305 126.64 118.458 126.271 118.73 125.998C119.002 125.725 119.37 125.571 119.755 125.57C120.139 125.572 120.506 125.726 120.778 125.999C121.05 126.272 121.203 126.641 121.206 127.026V146.97C121.203 147.356 121.05 147.725 120.778 147.997C120.506 148.27 120.139 148.424 119.755 148.426Z" fill="black"/>
<path opacity="0.2" d="M147.134 148.426C146.75 148.425 146.381 148.271 146.109 147.998C145.837 147.726 145.684 147.356 145.683 146.97V127.026C145.684 126.64 145.837 126.271 146.109 125.998C146.381 125.725 146.75 125.571 147.134 125.57C147.518 125.572 147.886 125.726 148.157 125.999C148.429 126.272 148.583 126.641 148.585 127.026V146.97C148.583 147.356 148.429 147.725 148.157 147.997C147.886 148.27 147.518 148.424 147.134 148.426Z" fill="black"/>
<path opacity="0.2" d="M138.004 148.426C137.62 148.424 137.252 148.27 136.981 147.997C136.709 147.725 136.555 147.356 136.553 146.97V127.026C136.555 126.641 136.709 126.272 136.981 125.999C137.252 125.726 137.62 125.572 138.004 125.57C138.389 125.571 138.757 125.725 139.029 125.998C139.301 126.271 139.454 126.64 139.455 127.026V146.97C139.454 147.356 139.301 147.726 139.029 147.998C138.757 148.271 138.389 148.425 138.004 148.426Z" fill="black"/>
<path opacity="0.2" d="M128.879 148.426C128.495 148.424 128.127 148.27 127.856 147.997C127.584 147.725 127.43 147.356 127.428 146.97V127.026C127.43 126.641 127.584 126.272 127.856 125.999C128.127 125.726 128.495 125.572 128.879 125.57C129.264 125.571 129.632 125.725 129.904 125.998C130.176 126.271 130.329 126.64 130.33 127.026V146.97C130.329 147.356 130.176 147.726 129.904 147.998C129.632 148.271 129.264 148.425 128.879 148.426Z" fill="black"/>
<path d="M82.5534 36.1434C82.5534 36.5375 82.4369 36.9228 82.2187 37.2505C82.0005 37.5782 81.6903 37.8336 81.3274 37.9844C80.9646 38.1352 80.5653 38.1747 80.18 38.0978C79.7948 38.0209 79.4409 37.8311 79.1632 37.5524C78.8855 37.2738 78.6963 36.9187 78.6197 36.5321C78.5431 36.1456 78.5824 35.7449 78.7327 35.3808C78.883 35.0167 79.1376 34.7055 79.4641 34.4865C79.7907 34.2676 80.1747 34.1507 80.5675 34.1507C81.0942 34.1507 81.5993 34.3606 81.9717 34.7343C82.3442 35.108 82.5534 35.6149 82.5534 36.1434Z" fill="#263238"/>
<path d="M78.9701 36.4312C78.9508 36.4317 78.9317 36.4268 78.915 36.4169C78.8983 36.407 78.8848 36.3926 78.8759 36.3754C78.7447 36.1334 78.6622 35.8679 78.6333 35.594C78.6043 35.3201 78.6294 35.0431 78.7071 34.7789C78.7848 34.5147 78.9136 34.2684 79.0861 34.0542C79.2586 33.8399 79.4716 33.6619 79.7127 33.5302C79.9538 33.3985 80.2184 33.3158 80.4914 33.2867C80.7644 33.2576 81.0404 33.2828 81.3037 33.3607C81.567 33.4387 81.8124 33.5679 82.026 33.7411C82.2395 33.9142 82.4169 34.1278 82.5482 34.3698C82.5608 34.395 82.5634 34.4242 82.5554 34.4512C82.5475 34.4783 82.5296 34.5014 82.5054 34.5158C82.493 34.5226 82.4794 34.5269 82.4654 34.5284C82.4514 34.5299 82.4372 34.5287 82.4237 34.5247C82.4102 34.5207 82.3976 34.514 82.3866 34.5052C82.3757 34.4963 82.3666 34.4853 82.3599 34.4729C82.122 34.0343 81.7204 33.7086 81.2432 33.5672C80.766 33.4259 80.2524 33.4805 79.8154 33.7192C79.3784 33.9578 79.0537 34.3608 78.9129 34.8396C78.772 35.3184 78.8264 35.8338 79.0643 36.2723C79.071 36.2847 79.0753 36.2983 79.0768 36.3124C79.0783 36.3264 79.0771 36.3407 79.0731 36.3542C79.0691 36.3678 79.0625 36.3804 79.0537 36.3914C79.0448 36.4024 79.0339 36.4116 79.0215 36.4183C79.0056 36.4265 78.988 36.4309 78.9701 36.4312Z" fill="#263238"/>
<path d="M77.0405 45.248C76.6536 45.2465 76.2747 45.1373 75.946 44.9327C75.6172 44.7281 75.3513 44.4361 75.178 44.0891C75.0046 43.7421 74.9305 43.3536 74.9639 42.9669C74.9972 42.5801 75.1368 42.2102 75.367 41.8982C75.5311 41.6777 75.7369 41.4917 75.9726 41.351C76.2084 41.2102 76.4694 41.1175 76.7409 41.078C76.7547 41.0755 76.7689 41.076 76.7825 41.0792C76.7962 41.0825 76.809 41.0886 76.8203 41.097C76.8315 41.1055 76.8409 41.1162 76.8478 41.1284C76.8548 41.1406 76.8592 41.1542 76.8607 41.1682C76.8644 41.196 76.8571 41.2242 76.8402 41.2467C76.8234 41.2692 76.7985 41.2842 76.7708 41.2884C76.2788 41.3607 75.8355 41.6262 75.5385 42.0265C75.2415 42.4268 75.1152 42.9291 75.1872 43.4228C75.2593 43.9166 75.5239 44.3614 75.9228 44.6594C76.3218 44.9574 76.8223 45.0842 77.3144 45.0118C77.3428 45.0073 77.3718 45.0142 77.3951 45.0311C77.4184 45.048 77.434 45.0735 77.4385 45.102C77.4431 45.1305 77.4361 45.1596 77.4193 45.183C77.4024 45.2063 77.377 45.222 77.3486 45.2266C77.2465 45.2401 77.1435 45.2473 77.0405 45.248Z" fill="#263238"/>
<path d="M87.8298 48.4947C87.4283 48.4941 87.0356 48.3762 86.6998 48.1554C86.676 48.1396 86.6591 48.1152 86.6527 48.0872C86.6463 48.0592 86.6509 48.0298 86.6656 48.0051C86.682 47.9819 86.7067 47.9658 86.7345 47.9602C86.7624 47.9546 86.7913 47.96 86.8154 47.9751C87.2325 48.2467 87.7402 48.341 88.2266 48.2371C88.713 48.1332 89.1383 47.8396 89.4091 47.4211C89.6798 47.0025 89.7737 46.4931 89.6702 46.0051C89.5666 45.517 89.2741 45.0902 88.8569 44.8185C88.8331 44.8027 88.8162 44.7782 88.8098 44.7503C88.8034 44.7223 88.8081 44.6929 88.8227 44.6682C88.8391 44.645 88.8638 44.6289 88.8917 44.6233C88.9195 44.6177 88.9484 44.623 88.9725 44.6382C89.4365 44.9413 89.7618 45.4166 89.8773 45.9599C89.9928 46.5032 89.8891 47.0703 89.5888 47.537C89.4406 47.7692 89.2477 47.9694 89.0213 48.1257C88.7949 48.2821 88.5397 48.3915 88.2706 48.4475C88.1256 48.478 87.9779 48.4939 87.8298 48.4947Z" fill="#263238"/>
<path d="M79.4537 42.3577C81.0043 42.3577 82.2614 41.0964 82.2614 39.5405C82.2614 37.9845 81.0043 36.7232 79.4537 36.7232C77.903 36.7232 76.646 37.9845 76.646 39.5405C76.646 41.0964 77.903 42.3577 79.4537 42.3577Z" fill="#263238"/>
<path d="M82.0889 45.9749C83.543 44.5158 83.543 42.1501 82.0889 40.691C80.6347 39.2319 78.2771 39.2319 76.8229 40.691C75.3688 42.1501 75.3688 44.5158 76.8229 45.9749C78.2771 47.434 80.6347 47.434 82.0889 45.9749Z" fill="#263238"/>
<path d="M79.8478 52.2139C82.1218 52.2139 83.9652 50.3642 83.9652 48.0825C83.9652 45.8008 82.1218 43.951 79.8478 43.951C77.5739 43.951 75.7305 45.8008 75.7305 48.0825C75.7305 50.3642 77.5739 52.2139 79.8478 52.2139Z" fill="#263238"/>
<path d="M87.9745 49.3118C88.4968 47.091 87.1262 44.8659 84.913 44.3418C82.6999 43.8177 80.4823 45.193 79.96 47.4137C79.4376 49.6344 80.8083 51.8595 83.0214 52.3837C85.2346 52.9078 87.4521 51.5325 87.9745 49.3118Z" fill="#263238"/>
<path d="M97.623 56.8864C97.623 57.2214 97.623 57.6465 97.653 58.0331C97.6829 58.4196 97.6829 58.8319 97.7086 59.2313C97.7642 60.03 97.8199 60.8374 97.9055 61.6405C98.0595 63.2524 98.275 64.8572 98.5517 66.4548C98.6245 66.8499 98.6887 67.2536 98.77 67.6487L98.9584 68.6236C99.0054 68.7782 98.9584 68.7481 98.8984 68.7438C98.8385 68.7395 98.8984 68.8211 99.151 68.8211C99.7973 68.7561 100.427 68.5742 101.008 68.2843C101.351 68.1297 101.702 67.9622 102.053 67.7818C102.404 67.6014 102.759 67.3953 103.08 67.2149L104.33 68.6622C104.032 69.0049 103.714 69.3304 103.38 69.6371C103.05 69.952 102.701 70.246 102.335 70.5175C101.952 70.8071 101.547 71.0669 101.124 71.2948C100.643 71.5583 100.127 71.7521 99.5918 71.8703C99.2616 71.9425 98.9235 71.9714 98.586 71.9562C98.174 71.9322 97.7703 71.8302 97.3961 71.6556C96.9982 71.4681 96.6439 71.1989 96.3561 70.8653C96.109 70.5754 95.9069 70.2496 95.7569 69.8991C95.6407 69.6309 95.5462 69.3537 95.4744 69.0702L95.3075 68.4432C95.1877 68.0137 95.0892 67.6057 94.9865 67.1849C94.5861 65.4966 94.2775 63.7876 94.062 62.0657C93.955 61.2068 93.8694 60.3479 93.8181 59.4675C93.7924 59.038 93.771 58.6085 93.7581 58.1533C93.7453 57.6981 93.7581 57.2944 93.7581 56.7833L97.623 56.8864Z" fill="#FFB573"/>
<path d="M95.5468 52.2568C99.1976 55.0612 99.0521 60.3479 99.0521 60.3479L92.5208 61.9154C92.5208 61.9154 90.5178 56.5987 91.331 54.6532C92.1784 52.6262 93.4924 50.6764 95.5468 52.2568Z" fill="#FC4B6C"/>
<path opacity="0.7" d="M95.5468 52.2568C99.1976 55.0612 99.0521 60.3479 99.0521 60.3479L92.5208 61.9154C92.5208 61.9154 90.5178 56.5987 91.331 54.6532C92.1784 52.6262 93.4924 50.6764 95.5468 52.2568Z" fill="white"/>
<path d="M102.836 67.7088L103.914 65.8879L106.619 68.791C106.619 68.791 104.681 70.0365 102.669 69.1475L102.836 67.7088Z" fill="#FFB573"/>
<path d="M105.246 65.0161L108.717 67.0689L106.62 68.7911L103.915 65.8879L105.246 65.0161Z" fill="#FFB573"/>
<path d="M75.1099 151.969L78.842 152.33L81.1618 143.556L77.4253 143.195L75.1099 151.969Z" fill="#FFB573"/>
<path d="M55.9785 144.595L59.3298 146.356L63.3144 138.428L59.9632 136.667L55.9785 144.595Z" fill="#FFB573"/>
<path d="M60.2237 144.814L57.2277 141.761C57.1779 141.707 57.1101 141.674 57.0374 141.668C56.9647 141.661 56.8922 141.682 56.8339 141.726L54.0819 143.758C54.0151 143.812 53.9604 143.879 53.9212 143.955C53.8821 144.032 53.8593 144.116 53.8545 144.202C53.8497 144.287 53.8628 144.373 53.8931 144.454C53.9235 144.534 53.9703 144.607 54.0305 144.668C55.092 145.716 55.6569 146.167 56.9752 147.511C57.7884 148.336 59.4576 150.281 60.5789 151.424C61.7003 152.566 62.8816 151.514 62.5178 150.938C60.8828 148.362 60.6089 146.743 60.5062 145.433C60.4876 145.2 60.3875 144.981 60.2237 144.814Z" fill="#263238"/>
<path d="M79.4243 151.192H74.9003C74.8194 151.193 74.7409 151.22 74.6768 151.269C74.6127 151.319 74.5665 151.388 74.5451 151.467L73.5778 155.035C73.5536 155.12 73.5496 155.21 73.5662 155.296C73.5828 155.383 73.6194 155.464 73.6731 155.534C73.7269 155.604 73.7962 155.66 73.8755 155.698C73.9549 155.736 74.042 155.755 74.1299 155.753C75.7178 155.753 76.4711 155.753 78.4527 155.753H84.5175C86.1653 155.753 86.5119 154.082 85.8271 153.927C82.7712 153.249 81.0079 152.313 80.0663 151.419C79.8878 151.266 79.659 151.185 79.4243 151.192Z" fill="#263238"/>
<path opacity="0.2" d="M81.1575 143.56L79.9634 148.082H76.1328L77.4211 143.199L81.1575 143.56Z" fill="black"/>
<path opacity="0.2" d="M59.9587 136.667L63.3142 138.432L61.2598 142.517L57.9043 140.752L59.9587 136.667Z" fill="black"/>
<path d="M94.4426 51.7157C94.4426 51.7157 96.0947 52.4414 90.5564 74.4298L75.174 73.0942C75.9744 66.837 76.3125 62.9632 74.4336 49.8088C76.6264 49.5512 78.8349 49.4521 81.0419 49.5125C83.3816 49.548 85.7158 49.7504 88.0269 50.1181C90.191 50.5415 92.3323 51.0747 94.4426 51.7157Z" fill="#FC4B6C"/>
<path opacity="0.7" d="M94.4426 51.7157C94.4426 51.7157 96.0947 52.4414 90.5564 74.4298L75.174 73.0942C75.9744 66.837 76.3125 62.9632 74.4336 49.8088C76.6264 49.5512 78.8349 49.4521 81.0419 49.5125C83.3816 49.548 85.7158 49.7504 88.0269 50.1181C90.191 50.5415 92.3323 51.0747 94.4426 51.7157Z" fill="white"/>
<path d="M81.0415 49.388C81.0415 49.388 80.1855 49.388 79.1369 49.388C78.5163 50.3457 81.1357 53.1415 84.4655 55.89C85.2702 53.3863 86.537 53.3949 86.537 53.3949L81.0415 49.388Z" fill="white"/>
<path d="M88.0229 50.0623C88.0229 50.0623 88.4124 50.1181 89.3454 50.3328C89.9617 51.2905 90.3084 53.6869 88.4894 55.7741C87.7746 53.1973 86.542 53.4292 86.542 53.4292L88.0229 50.0623Z" fill="white"/>
<path d="M82.4111 41.6792C82.6593 43.9725 82.7407 48.1211 81.0415 49.5126C81.0415 49.5126 82.8562 51.3764 86.537 53.4293C89.2077 51.574 88.0265 50.1181 88.0265 50.1181C85.5697 49.3021 85.7966 47.4426 86.3829 45.7247L82.4111 41.6792Z" fill="#FFB573"/>
<path opacity="0.2" d="M84.0339 43.3326L86.3836 45.7247C86.2394 46.1223 86.1305 46.5319 86.0583 46.9487C85.1167 46.7297 83.7471 45.7419 83.73 44.7284C83.7464 44.2485 83.8493 43.7756 84.0339 43.3326Z" fill="black"/>
<path d="M91.2364 34.198C92.8115 35.598 93.2737 39.008 91.7757 41.3228C91.3259 38.9762 91.145 36.5858 91.2364 34.198Z" fill="#263238"/>
<path d="M81.9323 36.865C81.6583 40.6399 81.4658 42.2332 83.0922 44.4106C85.5403 47.6874 90.2226 47.1935 91.6136 43.5774C92.8677 40.3178 93.1031 34.6919 89.6491 32.7078C88.8901 32.2632 88.0302 32.0215 87.1515 32.0058C86.2728 31.9901 85.4048 32.2009 84.6305 32.618C83.8562 33.0351 83.2015 33.6446 82.7291 34.3882C82.2567 35.1318 81.9823 35.9846 81.9323 36.865Z" fill="#FFB573"/>
<path d="M81.4316 39.9055C84.2136 39.7982 85.7544 36.1477 85.0567 34.606C88.2111 36.2551 92.9876 37.5521 92.4569 35.4305C91.7421 32.566 88.2881 30.466 84.0381 31.9949C81.5771 33.0685 79.4713 35.4305 81.4316 39.9055Z" fill="#263238"/>
<path d="M80.584 39.9012C80.7028 40.6231 81.0993 41.2692 81.6882 41.7007C82.4757 42.2633 83.1948 41.6363 83.2504 40.7215C83.3018 39.8927 82.9551 38.6043 82.0306 38.4067C81.8282 38.3664 81.6189 38.3775 81.4218 38.4391C81.2247 38.5007 81.0462 38.6108 80.9024 38.7593C80.7586 38.9079 80.6541 39.0902 80.5985 39.2897C80.5429 39.4891 80.5379 39.6994 80.584 39.9012Z" fill="#FFB573"/>
<path d="M90.5566 74.4299C90.5566 74.4299 94.0362 97.2128 92.0974 111.849C90.6293 122.907 81.1577 146.768 81.1577 146.768L75.0073 146.601C75.0073 146.601 81.3588 123.474 82.6728 114.391C84.9198 98.8361 79.2916 73.4679 79.2916 73.4679L90.5566 74.4299Z" fill="#263238"/>
<path opacity="0.2" d="M84.5557 79.0981L81.2729 84.2903C82.2615 90.4466 82.8888 96.6559 83.1519 102.886C87.7657 94.5974 85.6 83.4829 84.5557 79.0981Z" fill="black"/>
<path d="M82.1159 147.112L74.3862 146.901L74.857 144.406L82.8435 144.454L82.1159 147.112Z" fill="#FC4B6C"/>
<path d="M87.1922 74.1851C87.1922 74.1851 84.6242 99.4116 78.7563 113.137C74.0098 124.217 62.6935 141.941 62.6935 141.941L58.1738 139.287C58.1738 139.287 65.4498 119.579 69.0407 112.192C77.8019 94.082 69.6528 79.5534 75.174 73.1115L87.1922 74.1851Z" fill="#263238"/>
<path d="M63.1861 142.328L57.4209 139.154L58.3582 136.68L64.5 140.159L63.1861 142.328Z" fill="#FC4B6C"/>
<path d="M75.0196 72.1709L74.2064 73.4937C74.1465 73.5924 74.262 73.717 74.4418 73.7299L90.5731 75.1299C90.7101 75.1299 90.8342 75.0827 90.847 74.9968L91.1081 73.6268C91.1081 73.5323 91.0097 73.4421 90.8599 73.4292L75.2807 72.0764C75.2327 72.0691 75.1838 72.0739 75.1382 72.0904C75.0926 72.1069 75.0518 72.1346 75.0196 72.1709Z" fill="#FC4B6C"/>
<path d="M76.9634 74.0992L76.5354 74.0649C76.454 74.0649 76.3941 74.009 76.4027 73.9575L76.7536 72.1795C76.7536 72.1237 76.8435 72.0893 76.9248 72.0979L77.3528 72.1323C77.4384 72.1323 77.4983 72.1881 77.4855 72.2397L77.1388 74.0176C77.1217 74.0692 77.0404 74.1078 76.9634 74.0992Z" fill="#263238"/>
<path d="M89.3881 75.1772L88.9601 75.1428C88.8745 75.1428 88.8146 75.087 88.8274 75.0354L89.1784 73.2575C89.1784 73.2059 89.264 73.1673 89.3453 73.1759L89.7733 73.2102C89.8546 73.2102 89.9145 73.2661 89.906 73.3176L89.555 75.0956C89.5465 75.1557 89.4523 75.1858 89.3881 75.1772Z" fill="#263238"/>
<path d="M83.1728 74.6403L82.7448 74.6017C82.6635 74.6017 82.6036 74.5458 82.6121 74.4943L82.9631 72.7163C82.9631 72.6648 83.0487 72.6262 83.1343 72.6347L83.5623 72.6734C83.6436 72.6734 83.7035 72.7292 83.695 72.7808L83.344 74.5587C83.3355 74.6103 83.2584 74.6446 83.1728 74.6403Z" fill="#263238"/>
<path d="M87.8261 38.7417C87.7833 39.0466 87.9117 39.3172 88.1086 39.3429C88.3055 39.3687 88.5024 39.1454 88.5366 38.8405C88.5708 38.5355 88.4467 38.265 88.2498 38.2392C88.053 38.2134 87.8646 38.4368 87.8261 38.7417Z" fill="#263238"/>
<path d="M91.2583 39.2055C91.2198 39.5104 91.3482 39.781 91.5451 39.8067C91.7419 39.8325 91.9388 39.6092 91.9731 39.3043C92.0073 38.9993 91.8874 38.7288 91.6906 38.703C91.4937 38.6772 91.3011 38.9006 91.2583 39.2055Z" fill="#263238"/>
<path d="M91.5923 38.7073L92.3541 38.5956C92.3541 38.5956 91.909 39.1153 91.5923 38.7073Z" fill="#263238"/>
<path d="M89.9098 39.5405C90.0882 40.2717 90.3646 40.9753 90.7316 41.6319C90.5623 41.7222 90.3754 41.7744 90.1839 41.7848C89.9925 41.7952 89.8011 41.7635 89.623 41.6921L89.9098 39.5405Z" fill="#ED893E"/>
<path d="M87.843 42.6025C87.2411 42.4057 86.7362 41.9865 86.4306 41.4301C86.423 41.4123 86.4223 41.3923 86.4286 41.374C86.4349 41.3557 86.4479 41.3405 86.4649 41.3313C86.4831 41.3223 86.504 41.3209 86.5233 41.3273C86.5425 41.3338 86.5584 41.3475 86.5676 41.3657C86.7578 41.7003 87.0239 41.9851 87.3445 42.197C87.665 42.409 88.0309 42.542 88.4123 42.5853C88.4316 42.5853 88.4501 42.593 88.4637 42.6067C88.4774 42.6204 88.485 42.639 88.485 42.6583C88.485 42.6777 88.4774 42.6963 88.4637 42.71C88.4501 42.7237 88.4316 42.7314 88.4123 42.7314C88.2183 42.7099 88.0274 42.6667 87.843 42.6025Z" fill="#263238"/>
<path d="M86.2636 36.9766C86.2387 36.9663 86.2167 36.9501 86.1994 36.9293C86.1853 36.9157 86.1741 36.8994 86.1664 36.8813C86.1587 36.8632 86.1548 36.8438 86.1548 36.8241C86.1548 36.8045 86.1587 36.785 86.1664 36.767C86.1741 36.7489 86.1853 36.7325 86.1994 36.7189C86.4091 36.5307 86.6613 36.3964 86.9341 36.3276C87.207 36.2588 87.4924 36.2575 87.7659 36.3238C87.7846 36.3292 87.802 36.3383 87.8172 36.3506C87.8323 36.3629 87.8448 36.3781 87.854 36.3953C87.8632 36.4125 87.8688 36.4314 87.8706 36.4508C87.8724 36.4703 87.8702 36.4899 87.8643 36.5085C87.8534 36.5465 87.8279 36.5787 87.7934 36.598C87.759 36.6173 87.7183 36.6222 87.6803 36.6115C87.4551 36.5613 87.2213 36.5654 86.998 36.6237C86.7748 36.6819 86.5685 36.7926 86.3963 36.9465C86.3776 36.9608 86.3561 36.971 86.3332 36.9761C86.3103 36.9813 86.2866 36.9815 86.2636 36.9766Z" fill="#263238"/>
<path d="M92.7006 37.8914C92.6782 37.8826 92.6578 37.8695 92.6406 37.8527C92.4906 37.676 92.3012 37.5373 92.0878 37.4478C91.8744 37.3582 91.643 37.3204 91.4123 37.3374C91.3928 37.3417 91.3726 37.3419 91.353 37.3378C91.3334 37.3337 91.3149 37.3255 91.2987 37.3138C91.2826 37.302 91.2691 37.2869 91.2591 37.2695C91.2492 37.2521 91.243 37.2328 91.2411 37.2128C91.2349 37.1735 91.2445 37.1334 91.2678 37.1012C91.291 37.069 91.3261 37.0474 91.3652 37.041C91.6446 37.0158 91.926 37.058 92.1858 37.1641C92.4457 37.2702 92.6765 37.4371 92.8589 37.6509C92.8797 37.6757 92.892 37.7066 92.8938 37.7389C92.8957 37.7713 92.8871 37.8034 92.8692 37.8305C92.8514 37.8575 92.8254 37.8781 92.795 37.889C92.7646 37.9 92.7315 37.9008 92.7006 37.8914Z" fill="#263238"/>
<path d="M96.0865 70.2941C96.3636 69.4279 96.808 68.6248 97.3944 67.9309C97.9808 67.237 98.6976 66.6658 99.504 66.2498C100.31 65.8339 101.191 65.5814 102.094 65.5067C102.998 65.4321 103.907 65.5368 104.771 65.8149C105.634 66.0929 106.434 66.5388 107.126 67.1272C107.817 67.7156 108.387 68.4349 108.801 69.244C109.216 70.0532 109.467 70.9363 109.542 71.8431C109.616 72.7498 109.512 73.6623 109.235 74.5286L106.572 82.8859L93.4243 78.6472L96.0865 70.2941Z" fill="#FC4B6C"/>
<path opacity="0.3" d="M96.0865 70.2941C96.3636 69.4279 96.808 68.6248 97.3944 67.9309C97.9808 67.237 98.6976 66.6658 99.504 66.2498C100.31 65.8339 101.191 65.5814 102.094 65.5067C102.998 65.4321 103.907 65.5368 104.771 65.8149C105.634 66.0929 106.434 66.5388 107.126 67.1272C107.817 67.7156 108.387 68.4349 108.801 69.244C109.216 70.0532 109.467 70.9363 109.542 71.8431C109.616 72.7498 109.512 73.6623 109.235 74.5286L106.572 82.8859L93.4243 78.6472L96.0865 70.2941Z" fill="black"/>
<path d="M83.1134 66.1112L80.708 73.6268C80.6728 73.7348 80.6593 73.8487 80.6682 73.9619C80.6772 74.0752 80.7084 74.1856 80.7602 74.2866C80.8119 74.3877 80.8831 74.4774 80.9697 74.5507C81.0562 74.6239 81.1564 74.6792 81.2644 74.7133L93.4196 78.63L96.0903 70.2899C96.6507 68.542 97.8797 67.0889 99.5072 66.2498C101.135 65.4107 103.028 65.2543 104.77 65.8149L91.7975 61.6319C90.0539 61.0726 88.1604 61.23 86.5324 62.0698C84.9044 62.9095 83.6748 64.363 83.1134 66.1112Z" fill="#FC4B6C"/>
<path d="M89.636 71.8102L92.9872 61.3442C92.9988 61.3066 93.0021 61.267 92.9971 61.2281C92.992 61.1891 92.9787 61.1516 92.958 61.1183C92.9373 61.0849 92.9098 61.0563 92.8771 61.0346C92.8445 61.0128 92.8076 60.9983 92.769 60.9921L89.345 60.4853L88.917 61.8424L91.4122 62.6455L88.5874 71.4666L89.636 71.8102Z" fill="#263238"/>
<path d="M87.856 71.2347C87.7787 71.4773 87.7747 71.7374 87.8445 71.9822C87.9144 72.227 88.055 72.4456 88.2486 72.6102C88.4422 72.7749 88.6801 72.8783 88.9322 72.9074C89.1843 72.9365 89.4394 72.89 89.6652 72.7737C89.891 72.6574 90.0774 72.4766 90.2008 72.2541C90.3243 72.0316 90.3792 71.7774 90.3587 71.5236C90.3383 71.2697 90.2433 71.0277 90.0858 70.828C89.9283 70.6283 89.7154 70.4799 89.4739 70.4016C89.3131 70.3494 89.1437 70.3296 88.9753 70.3433C88.807 70.357 88.6429 70.4039 88.4926 70.4813C88.3423 70.5587 88.2088 70.665 88.0995 70.7943C87.9903 70.9236 87.9075 71.0733 87.856 71.2347Z" fill="#263238"/>
<path d="M94.0529 79.8797L110.916 85.3124C110.977 85.3324 111.042 85.3401 111.106 85.3349C111.17 85.3298 111.233 85.3119 111.29 85.2824C111.348 85.2528 111.398 85.2122 111.44 85.1628C111.482 85.1134 111.513 85.0562 111.532 84.9946C111.553 84.9332 111.561 84.8682 111.556 84.8036C111.551 84.739 111.534 84.676 111.504 84.6184C111.475 84.5607 111.434 84.5096 111.384 84.468C111.335 84.4264 111.277 84.3952 111.216 84.3762L93.4194 78.6429C93.34 78.8912 93.3621 79.161 93.4809 79.3929C93.5997 79.6249 93.8054 79.8 94.0529 79.8797Z" fill="#FC4B6C"/>
<path opacity="0.2" d="M94.0529 79.8797L100.944 82.1C101.005 82.1201 101.07 82.1278 101.135 82.1227C101.199 82.1176 101.262 82.0998 101.32 82.0703C101.377 82.0408 101.429 82.0001 101.471 81.9507C101.513 81.9013 101.544 81.844 101.564 81.7822C101.603 81.6581 101.592 81.5234 101.533 81.4076C101.473 81.2918 101.371 81.2042 101.248 81.1638L93.4194 78.6429C93.34 78.8912 93.3621 79.161 93.4809 79.3929C93.5997 79.6249 93.8054 79.8 94.0529 79.8797Z" fill="black"/>
<path d="M76.2438 55.8729L76.0084 56.1349L75.743 56.4398C75.5632 56.6459 75.3835 56.8692 75.2123 57.0797C74.8613 57.5091 74.5275 57.9686 74.215 58.4325C72.9218 60.2692 71.9038 62.2862 71.1934 64.4192C71.0222 64.9517 70.8638 65.4842 70.7397 66.0296C70.6969 66.1885 70.6926 66.253 70.6712 66.326C70.6679 66.3889 70.6679 66.452 70.6712 66.5149C70.6643 66.582 70.6643 66.6497 70.6712 66.7168C70.6712 66.7941 70.8167 66.9745 71.1677 67.1462C71.5896 67.3367 72.034 67.4723 72.4902 67.5499C73.5911 67.7255 74.7057 67.7989 75.82 67.769C76.9842 67.769 78.1655 67.6659 79.3468 67.5413C80.528 67.4168 81.7264 67.2622 82.8863 67.0861L83.3528 68.9457C80.964 69.7258 78.506 70.2738 76.0126 70.5819C74.6999 70.7533 73.3725 70.7821 72.0536 70.6678C71.2996 70.5968 70.5591 70.4205 69.8537 70.1439C69.4306 69.9736 69.033 69.7453 68.6724 69.4653C68.2478 69.1312 67.8978 68.7113 67.6452 68.2328C67.2105 67.3351 67.0942 66.3155 67.3157 65.3425C67.4184 64.6854 67.5682 64.0541 67.7437 63.3927C68.0796 62.1232 68.5264 60.8858 69.079 59.6951C69.6331 58.5016 70.2785 57.3529 71.0093 56.2594C71.3774 55.714 71.7712 55.1857 72.182 54.6661C72.3918 54.4084 72.61 54.155 72.824 53.9017L73.1707 53.528C73.2948 53.3949 73.3933 53.2875 73.5645 53.1243L76.2438 55.8729Z" fill="#FFB573"/>
<path d="M81.9537 67.4812L84.9497 65.8879L85.0823 69.1174C85.0823 69.1174 82.9423 70.0064 81.7183 69.0272L81.9537 67.4812Z" fill="#FFB573"/>
<path d="M87.4189 65.6431L86.9695 68.6192L85.0863 69.1174L84.9536 65.8879L87.4189 65.6431Z" fill="#FFB573"/>
<path d="M74.4335 49.8175C72.546 50.1524 69.9053 55.5808 69.9053 55.5808L74.6604 59.8754C74.6604 59.8754 78.4396 55.7354 78.2384 53.2703C78.0672 51.1874 76.8346 49.388 74.4335 49.8175Z" fill="#FC4B6C"/>
<path opacity="0.7" d="M74.4335 49.8175C72.546 50.1524 69.9053 55.5808 69.9053 55.5808L74.6604 59.8754C74.6604 59.8754 78.4396 55.7354 78.2384 53.2703C78.0672 51.1874 76.8346 49.388 74.4335 49.8175Z" fill="white"/>
<path d="M61.6964 146.472C61.6467 146.479 61.5963 146.479 61.5466 146.472C61.0715 146.446 60.5665 145.716 60.3054 145.287C60.2973 145.275 60.293 145.26 60.293 145.246C60.293 145.231 60.2973 145.217 60.3054 145.205C60.3132 145.192 60.325 145.182 60.3389 145.177C60.3528 145.172 60.3681 145.171 60.3824 145.175C60.5365 145.205 61.8676 145.506 62.0345 145.957C62.0518 146.006 62.0562 146.058 62.0472 146.109C62.0382 146.161 62.0161 146.209 61.9832 146.249C61.9147 146.353 61.8139 146.431 61.6964 146.472ZM60.528 145.381C60.9089 145.97 61.2855 146.322 61.5552 146.339C61.6166 146.34 61.6772 146.325 61.7313 146.296C61.7853 146.267 61.8308 146.224 61.8633 146.171C61.8818 146.152 61.8944 146.129 61.8997 146.103C61.9051 146.077 61.9028 146.05 61.8933 146.025C61.7906 145.75 60.9902 145.493 60.528 145.381Z" fill="#FC4B6C"/>
<path d="M61.5593 145.287C61.1647 145.396 60.7505 145.413 60.3481 145.338C60.3355 145.334 60.3241 145.327 60.3151 145.317C60.3061 145.307 60.2998 145.295 60.2967 145.282C60.2907 145.271 60.2876 145.259 60.2876 145.246C60.2876 145.233 60.2907 145.221 60.2967 145.209C60.331 145.179 61.1099 144.415 61.6535 144.454C61.7207 144.454 61.7867 144.471 61.8461 144.503C61.9056 144.534 61.9569 144.579 61.9959 144.634C62.0426 144.684 62.0714 144.749 62.0776 144.817C62.0838 144.885 62.0671 144.954 62.0301 145.012C61.9072 145.152 61.7419 145.249 61.5593 145.287ZM60.5278 145.218C60.9558 145.278 61.7562 145.171 61.9231 144.926C61.9488 144.887 61.9702 144.827 61.8932 144.728C61.8673 144.691 61.8328 144.66 61.7926 144.638C61.7524 144.616 61.7077 144.605 61.662 144.604C61.2897 144.578 60.7504 145.016 60.5278 145.218Z" fill="#FC4B6C"/>
<path d="M81.0207 151.767C80.6068 151.757 80.1951 151.704 79.7923 151.608C79.7782 151.603 79.766 151.594 79.7574 151.582C79.7488 151.569 79.7441 151.555 79.7441 151.54C79.7441 151.525 79.7488 151.51 79.7574 151.498C79.766 151.485 79.7782 151.476 79.7923 151.471C79.9764 151.381 81.6156 150.612 82.0265 150.904C82.0635 150.929 82.093 150.964 82.1119 151.005C82.1307 151.046 82.1382 151.091 82.1335 151.136C82.1315 151.22 82.1104 151.302 82.0718 151.377C82.0333 151.451 81.9782 151.516 81.9109 151.565C81.6424 151.724 81.3311 151.795 81.0207 151.767ZM80.0491 151.51C80.5328 151.6 81.4316 151.72 81.8039 151.441C81.8516 151.403 81.8908 151.356 81.9189 151.302C81.9469 151.248 81.9632 151.188 81.9666 151.127C81.9703 151.108 81.9682 151.089 81.9606 151.071C81.9529 151.054 81.9401 151.039 81.9238 151.029C81.6926 150.87 80.7254 151.209 80.0363 151.51H80.0491Z" fill="#FC4B6C"/>
<path d="M79.805 151.6C79.7896 151.604 79.7733 151.604 79.7579 151.6C79.7476 151.59 79.7398 151.578 79.7354 151.564C79.7309 151.551 79.7298 151.536 79.7322 151.522C79.7322 151.454 80.1217 149.835 81.0162 149.938C81.2388 149.968 81.2987 150.075 81.3115 150.165C81.3672 150.595 80.3357 151.406 79.8435 151.613L79.805 151.6ZM80.9263 150.067C80.3614 150.067 80.0318 151.011 79.9205 151.389C80.4555 151.106 81.2045 150.432 81.1575 150.17C81.1575 150.148 81.1575 150.088 80.9905 150.071L80.9263 150.067Z" fill="#FC4B6C"/>
<path d="M88.1685 38.2435L88.926 38.1318C88.926 38.1318 88.4766 38.6515 88.1685 38.2435Z" fill="#263238"/>
<path d="M114.503 74.1722L97.9311 77.6079C97.6477 77.6613 97.3547 77.6014 97.1148 77.4408C96.8748 77.2803 96.707 77.032 96.6471 76.749L95.8724 73.1415L95.5942 71.8102L96.0822 70.2899C96.1501 70.0717 96.2315 69.858 96.3261 69.65C96.3368 69.617 96.3511 69.5853 96.3689 69.5555C96.6423 68.9299 97.0104 68.3504 97.4603 67.8377L98.3163 67.6573L112.526 64.6983C112.809 64.6449 113.102 64.7048 113.342 64.8654C113.582 65.0259 113.75 65.2742 113.81 65.5572L115.321 72.8581C115.383 73.1409 115.332 73.4367 115.179 73.6823C115.026 73.9279 114.784 74.1038 114.503 74.1722Z" fill="#FC4B6C"/>
<path opacity="0.3" d="M113.681 65.1707L105.686 73.3305L103.974 72.6348L97.3143 69.9249L96.377 69.5426C96.6503 68.917 97.0185 68.3375 97.4684 67.8248L98.3244 67.6444L112.534 64.6854C112.752 64.6418 112.977 64.6647 113.182 64.7513C113.386 64.8378 113.56 64.9839 113.681 65.1707Z" fill="black"/>
<path d="M113.681 65.1707L103.974 72.6476L103.341 73.1372L97.2418 70.1009L96.3345 69.6714C96.3451 69.6384 96.3595 69.6067 96.3773 69.577C96.6506 68.9513 97.0188 68.3719 97.4687 67.8591L98.3247 67.6787L112.534 64.7198C112.748 64.6727 112.972 64.6904 113.176 64.7706C113.38 64.8509 113.556 64.9901 113.681 65.1707Z" fill="#FC4B6C"/>
<path opacity="0.2" d="M113.681 65.1707L103.974 72.6476L103.341 73.1372L97.2418 70.1009L96.3345 69.6714C96.3451 69.6384 96.3595 69.6067 96.3773 69.577C96.6506 68.9513 97.0188 68.3719 97.4687 67.8591L98.3247 67.6787L112.534 64.7198C112.748 64.6727 112.972 64.6904 113.176 64.7706C113.38 64.8509 113.556 64.9901 113.681 65.1707Z" fill="white"/>
<path d="M134.734 89.2334L129.684 94.6961C129.485 94.9091 129.21 95.0344 128.919 95.0449C128.628 95.0553 128.344 94.9501 128.13 94.752L115.744 83.178C115.531 82.9786 115.405 82.7024 115.395 82.4101C115.384 82.1178 115.49 81.8333 115.688 81.6191L120.756 76.1563C120.854 76.0492 120.972 75.9627 121.104 75.9019C121.236 75.841 121.378 75.807 121.523 75.8018C121.668 75.7967 121.813 75.8204 121.948 75.8716C122.084 75.9229 122.208 76.0007 122.314 76.1005L134.696 87.6745C134.856 87.8243 134.969 88.0188 135.018 88.233C135.068 88.4473 135.052 88.6715 134.974 88.8769C134.921 89.0116 134.839 89.1331 134.734 89.2334Z" fill="#FC4B6C"/>
<path opacity="0.3" d="M134.957 88.8985L123.692 87.0561L121.077 75.8901C121.277 75.7979 121.499 75.767 121.716 75.8014C121.933 75.8358 122.135 75.9339 122.297 76.0834L134.679 87.6573C134.847 87.8101 134.964 88.0114 135.014 88.2337C135.064 88.4559 135.044 88.6881 134.957 88.8985Z" fill="black"/>
<path d="M134.957 88.8985L123.988 85.6174L121.077 75.9288C121.277 75.8365 121.499 75.8056 121.716 75.84C121.933 75.8744 122.135 75.9725 122.297 76.122L134.679 87.696C134.839 87.8458 134.952 88.0403 135.001 88.2546C135.051 88.4688 135.036 88.693 134.957 88.8985Z" fill="#FC4B6C"/>
<path opacity="0.2" d="M134.957 88.8985L123.988 85.6174L121.077 75.9288C121.277 75.8365 121.499 75.8056 121.716 75.84C121.933 75.8744 122.135 75.9725 122.297 76.122L134.679 87.696C134.839 87.8458 134.952 88.0403 135.001 88.2546C135.051 88.4688 135.036 88.693 134.957 88.8985Z" fill="white"/>
<path d="M139.139 98.2306L144.703 104.75C144.809 104.875 144.889 105.02 144.938 105.176C144.986 105.333 145.002 105.498 144.985 105.661C144.968 105.825 144.918 105.983 144.838 106.126C144.757 106.269 144.649 106.394 144.519 106.493L132.432 115.942C132.229 116.064 131.988 116.107 131.755 116.061C131.523 116.015 131.315 115.883 131.174 115.693L126.821 110.711C126.739 110.615 126.672 110.508 126.62 110.393C126.539 110.235 126.506 110.057 126.523 109.88C126.541 109.704 126.608 109.536 126.719 109.397L137.419 98.1834C137.586 98.0018 137.806 97.8789 138.048 97.8325C138.29 97.7861 138.54 97.8188 138.762 97.9257C138.906 98.0025 139.034 98.1059 139.139 98.2306Z" fill="#FC4B6C"/>
<path opacity="0.3" d="M138.761 97.9386L136.104 109.8L126.636 110.406C126.555 110.248 126.522 110.07 126.539 109.893C126.557 109.716 126.624 109.548 126.735 109.41L137.435 98.1963C137.601 98.0185 137.818 97.8978 138.056 97.8516C138.295 97.8053 138.541 97.8357 138.761 97.9386Z" fill="black"/>
<path d="M138.762 97.9386L134.306 110.526L126.628 110.406C126.547 110.248 126.513 110.07 126.531 109.893C126.548 109.716 126.616 109.548 126.726 109.41L137.426 98.1963C137.593 98.0166 137.812 97.8948 138.052 97.8485C138.292 97.8022 138.541 97.8337 138.762 97.9386Z" fill="#FC4B6C"/>
<path opacity="0.2" d="M138.762 97.9386L134.306 110.526L126.628 110.406C126.547 110.248 126.513 110.07 126.531 109.893C126.548 109.716 126.616 109.548 126.726 109.41L137.426 98.1963C137.593 98.0166 137.812 97.8948 138.052 97.8485C138.292 97.8022 138.541 97.8337 138.762 97.9386Z" fill="white"/>
</svg>
